<svg xmlns="http://www.w3.org/2000/svg" viewBox="0 0 512 512" role="img" aria-labelledby="title desc">
  <title id="title">Argus multi-eye agent mascot</title>
  <desc id="desc">A friendly many-eyed sentinel working behind a terminal, representing Manager, Planner, Engineer, and Reviewer.</desc>
  <defs>
    <linearGradient id="bg" x1="92" y1="58" x2="422" y2="454" gradientUnits="userSpaceOnUse">
      <stop offset="0" stop-color="#10182f"/>
      <stop offset="0.55" stop-color="#263a82"/>
      <stop offset="1" stop-color="#6842a5"/>
    </linearGradient>
    <linearGradient id="iris" x1="210" y1="188" x2="302" y2="286" gradientUnits="userSpaceOnUse">
      <stop offset="0" stop-color="#55e6ff"/>
      <stop offset="0.5" stop-color="#62a8ff"/>
      <stop offset="1" stop-color="#b06cff"/>
    </linearGradient>
    <linearGradient id="screen" x1="144" y1="340" x2="370" y2="442" gradientUnits="userSpaceOnUse">
      <stop offset="0" stop-color="#17223f"/>
      <stop offset="1" stop-color="#0a1023"/>
    </linearGradient>
    <filter id="shadow" x="-20%" y="-20%" width="140%" height="150%">
      <feDropShadow dx="0" dy="12" stdDeviation="12" flood-color="#050816" flood-opacity="0.35"/>
    </filter>
  </defs>

  <circle cx="256" cy="252" r="222" fill="url(#bg)"/>
  <circle cx="256" cy="252" r="205" fill="none" stroke="#b7c7ff" stroke-opacity="0.18" stroke-width="2" stroke-dasharray="5 12"/>

  <g fill="#f6c85f">
    <circle cx="82" cy="184" r="5"/>
    <circle cx="420" cy="145" r="4"/>
    <path d="M405 250l4 9 9 4-9 4-4 9-4-9-9-4 9-4z"/>
  </g>
  <g fill="#75e5ff">
    <circle cx="108" cy="315" r="4"/>
    <path d="M123 120l3 7 7 3-7 3-3 7-3-7-7-3 7-3z"/>
  </g>

  <g filter="url(#shadow)">
    <path d="M153 310V208c0-76 45-126 103-126s103 50 103 126v102c0 53-43 96-103 96s-103-43-103-96z" fill="#f7f9ff" stroke="#17213a" stroke-width="9"/>
    <path d="M174 132c-19 12-32 31-39 56" fill="none" stroke="#91a8ee" stroke-width="12" stroke-linecap="round"/>
    <path d="M338 132c19 12 32 31 39 56" fill="none" stroke="#91a8ee" stroke-width="12" stroke-linecap="round"/>
    <rect x="128" y="192" width="32" height="78" rx="16" fill="#5269bd" stroke="#17213a" stroke-width="8"/>
    <rect x="352" y="192" width="32" height="78" rx="16" fill="#5269bd" stroke="#17213a" stroke-width="8"/>
    <path d="M380 244c26 5 33 18 31 35" fill="none" stroke="#17213a" stroke-width="8" stroke-linecap="round"/>
    <circle cx="408" cy="283" r="9" fill="#f6c85f" stroke="#17213a" stroke-width="6"/>

    <g stroke="#17213a" stroke-width="6">
      <ellipse cx="205" cy="145" rx="22" ry="19" fill="#ffffff"/>
      <ellipse cx="256" cy="132" rx="23" ry="20" fill="#ffffff"/>
      <ellipse cx="307" cy="145" rx="22" ry="19" fill="#ffffff"/>
    </g>
    <g fill="#263a82">
      <circle cx="207" cy="146" r="9"/>
      <circle cx="256" cy="133" r="9"/>
      <circle cx="305" cy="146" r="9"/>
    </g>
    <g fill="#ffffff">
      <circle cx="210" cy="142" r="3"/>
      <circle cx="259" cy="129" r="3"/>
      <circle cx="308" cy="142" r="3"/>
    </g>

    <path d="M179 236c21-38 48-58 77-58s56 20 77 58c-21 38-48 58-77 58s-56-20-77-58z" fill="#ffffff" stroke="#17213a" stroke-width="9" stroke-linejoin="round"/>
    <circle cx="256" cy="236" r="42" fill="url(#iris)" stroke="#17213a" stroke-width="7"/>
    <circle cx="256" cy="236" r="19" fill="#10182f"/>
    <circle cx="269" cy="222" r="8" fill="#ffffff"/>
    <circle cx="244" cy="249" r="4" fill="#d9f8ff"/>

    <ellipse cx="197" cy="303" rx="18" ry="9" fill="#ff9da9" opacity="0.55"/>
    <ellipse cx="315" cy="303" rx="18" ry="9" fill="#ff9da9" opacity="0.55"/>

    <path d="M163 342c-27-6-42 8-43 31" fill="none" stroke="#f7f9ff" stroke-width="28" stroke-linecap="round"/>
    <path d="M349 342c27-6 42 8 43 31" fill="none" stroke="#f7f9ff" stroke-width="28" stroke-linecap="round"/>
    <circle cx="122" cy="376" r="18" fill="#f7f9ff" stroke="#17213a" stroke-width="7"/>
    <circle cx="390" cy="376" r="18" fill="#f7f9ff" stroke="#17213a" stroke-width="7"/>

    <path d="M116 336h280l-20 118H136z" fill="url(#screen)" stroke="#17213a" stroke-width="10" stroke-linejoin="round"/>
    <path d="M98 454h316c0 19-14 29-35 29H133c-21 0-35-10-35-29z" fill="#dce5ff" stroke="#17213a" stroke-width="9" stroke-linejoin="round"/>
    <path d="M166 379l16 13-16 13" fill="none" stroke="#75e5ff" stroke-width="8" stroke-linecap="round" stroke-linejoin="round"/>
    <path d="M194 406h28" stroke="#b5a2ff" stroke-width="8" stroke-linecap="round"/>

    <g stroke="#17213a" stroke-width="4">
      <circle cx="278" cy="394" r="11" fill="#58c9ff"/>
      <circle cx="310" cy="394" r="11" fill="#a87cff"/>
      <circle cx="342" cy="394" r="11" fill="#f6c85f"/>
      <circle cx="374" cy="394" r="11" fill="#65d49a"/>
    </g>
  </g>
</svg>
